<svg width="20" height="20" viewBox="0 0 20 20" fill="none" xmlns="http://www.w3.org/2000/svg">
<g clip-path="url(#clip0_1102_1585)">
<path d="M11.3663 7.64574H11.8096L11.752 8.1875H11.3102L11.3663 7.64574ZM15.1088 4.60649V11.3935C15.0937 11.8221 14.8759 12.2053 14.4931 12.4599L8.61535 15.8534C8.27676 16.0489 7.72262 16.0489 7.38404 15.8534L1.50628 12.4599C1.14955 12.226 0.916967 11.8489 0.890625 11.3935V4.60649C0.890625 4.21549 1.16764 3.7356 1.50628 3.54013L7.38404 0.14664C7.72262 -0.0488801 8.27676 -0.0488801 8.61535 0.14664L14.4931 3.54013C14.8486 3.78015 15.095 4.19509 15.1088 4.60649ZM12.1041 10.371L10.053 9.18417C8.6848 11.3743 5.66314 10.3041 5.63 8.00002C5.74034 5.50007 8.81469 4.76781 10.0529 6.81573L12.1039 5.62885C9.43091 1.3288 3.23247 3.37225 3.26031 8.00002C3.37912 12.9892 9.74837 14.4605 12.1041 10.371ZM12.5938 7.2685H12.2421L12.3055 6.65625H11.9149L11.8497 7.2685H11.4054L11.4688 6.65625H11.0781L11.013 7.2685H10.6406V7.64574H10.9729L10.9152 8.1875H10.5312V8.56474H10.8751L10.8039 9.23438H11.2018L11.2712 8.56474H11.7119L11.6406 9.23438H12.0386L12.1079 8.56474H12.4844V8.1875H12.147L12.203 7.64574H12.5938V7.2685Z" fill="#0277BD"/>
</g>
<defs>
<clipPath id="clip0_1102_1585">
<rect width="16" height="16" fill="white"/>
</clipPath>
</defs>
</svg>
