<svg width="268" height="212" viewBox="0 0 268 212" fill="none" xmlns="http://www.w3.org/2000/svg">
<path d="M133 196C197.617 196 250 190.18 250 183C250 175.82 197.617 170 133 170C68.3827 170 16 175.82 16 183C16 190.18 68.3827 196 133 196Z" fill="#232249"/>
<path d="M193.706 183.19H64.5225L83.2022 77.2528H212.386L193.706 183.19Z" fill="#2D2C5F"/>
<path d="M127.415 66.2818H85.1364L83.2021 77.2528H128.448L127.415 66.2818Z" fill="#2D2C5F"/>
<g opacity="0.1">
<path d="M193.706 183.19H64.5225L83.2022 77.2528H212.386L193.706 183.19Z" fill="black"/>
<path d="M127.415 66.2818H85.1364L83.2021 77.2528H128.448L127.415 66.2818Z" fill="black"/>
</g>
<path d="M193.517 183.19H64.0547L45.6738 81.0985H175.136L193.517 183.19Z" fill="#3F3F85"/>
<path d="M90.5353 143.508C93.5071 143.508 95.9163 141.099 95.9163 138.127C95.9163 135.155 93.5071 132.746 90.5353 132.746C87.5634 132.746 85.1543 135.155 85.1543 138.127C85.1543 141.099 87.5634 143.508 90.5353 143.508Z" fill="#7979AA"/>
<path d="M133.073 143.508C136.045 143.508 138.454 141.099 138.454 138.127C138.454 135.155 136.045 132.746 133.073 132.746C130.102 132.746 127.692 135.155 127.692 138.127C127.692 141.099 130.102 143.508 133.073 143.508Z" fill="#7979AA"/>
<path d="M104.185 144L104.48 144.563C104.507 144.614 107.287 149.752 112.88 149.752C117.981 149.752 119.225 144.915 119.275 144.709L119.426 144.092L120.66 144.391L120.512 145.007C120.497 145.068 118.996 151.024 112.88 151.024C106.504 151.024 103.479 145.394 103.354 145.154L103.058 144.591L104.185 144Z" fill="#7979AA"/>
<path d="M217.27 45.2661C216.377 53.8036 208.728 60.0036 200.192 59.1105C196.741 58.7494 193.674 57.285 191.299 55.0977L183.522 56.2391L187.414 49.5158C186.469 47.2188 186.072 44.6624 186.347 42.0311C187.24 33.4935 194.889 27.2935 203.426 28.1866C211.963 29.0797 218.163 36.7285 217.27 45.2661Z" fill="#3F3F85"/>
<path d="M217.271 45.266C216.946 48.1038 215.909 50.8854 214.134 53.1456C213.726 53.7375 213.201 54.232 212.725 54.7678C212.185 55.238 211.681 55.7544 211.085 56.1567C209.948 57.0324 208.67 57.719 207.335 58.2448C206.006 58.8042 204.576 59.0712 203.15 59.2427C202.431 59.2814 201.711 59.3468 200.991 59.2838C200.269 59.2676 199.55 59.1903 198.84 59.0599C195.995 58.5448 193.301 57.2132 191.149 55.263L191.333 55.3197L183.564 56.5122L183 56.5989L183.286 56.1018L187.154 49.3655L187.136 49.6312C185.251 45.1943 185.676 39.9105 188.093 35.7762C189.298 33.7062 190.978 31.9224 192.961 30.5921C194.943 29.2581 197.242 28.4217 199.595 28.103C201.951 27.7906 204.375 28.0051 206.625 28.7523C208.871 29.5088 210.931 30.7811 212.62 32.4282C216.051 35.6907 217.776 40.5853 217.271 45.266ZM217.271 45.266C217.744 40.5816 215.984 35.7169 212.551 32.4981C210.847 30.8884 208.783 29.6691 206.556 28.9612C204.326 28.2633 201.94 28.0968 199.643 28.4429C197.347 28.7953 195.124 29.6504 193.223 30.9788C191.327 32.3104 189.727 34.0517 188.572 36.0518C187.394 38.0476 186.784 40.334 186.599 42.6291C186.454 44.9318 186.829 47.2624 187.693 49.401L187.749 49.5401L187.675 49.6673L183.761 56.3769L183.483 55.9665L191.267 54.8763L191.375 54.8613L191.451 54.9331C193.509 56.8646 196.113 58.213 198.895 58.7674C199.59 58.9078 200.295 58.9957 201.004 59.0238C201.712 59.0986 202.421 59.0462 203.131 59.0207C204.539 58.876 205.958 58.6377 207.283 58.1063C208.613 57.608 209.899 56.955 211.032 56.0856C211.629 55.6896 212.133 55.18 212.674 54.7154C213.151 54.1859 213.678 53.6969 214.088 53.1101C215.871 50.8698 216.927 48.1019 217.271 45.266Z" fill="#7979AA"/>
<path d="M194.21 50.8966C194.21 49.9686 194.854 49.2982 195.73 49.2982C196.659 49.2982 197.252 49.9686 197.252 50.8966C197.252 51.7991 196.659 52.4945 195.73 52.4945C194.829 52.4945 194.21 51.7985 194.21 50.8966ZM194.854 47.2101L194.493 34.8369H196.968L196.607 47.2101H194.854Z" fill="#7979AA"/>
<path d="M200.139 50.8966C200.139 49.9686 200.783 49.2982 201.66 49.2982C202.588 49.2982 203.181 49.9686 203.181 50.8966C203.181 51.7991 202.588 52.4945 201.66 52.4945C200.757 52.4945 200.139 51.7985 200.139 50.8966ZM200.783 47.2101L200.422 34.8369H202.897L202.537 47.2101H200.783Z" fill="#7979AA"/>
<path d="M206.068 50.8966C206.068 49.9686 206.713 49.2982 207.59 49.2982C208.518 49.2982 209.11 49.9686 209.11 50.8966C209.11 51.7991 208.517 52.4945 207.59 52.4945C206.687 52.4945 206.068 51.7985 206.068 50.8966ZM206.713 47.2101L206.352 34.8369H208.827L208.466 47.2101H206.713Z" fill="#7979AA"/>
</svg>
