<svg width="20" height="20" viewBox="0 0 20 20" fill="none" xmlns="http://www.w3.org/2000/svg">
<path d="M11.087 7.1C10.6271 7.12237 10.1908 7.30984 9.858 7.628C9.70002 7.78416 9.57629 7.9715 9.49468 8.1781C9.41307 8.3847 9.37538 8.60603 9.384 8.828C9.37191 9.169 9.45743 9.50636 9.6305 9.80043C9.80358 10.0945 10.057 10.333 10.361 10.488C10.6225 10.6347 10.893 10.7647 11.171 10.877C11.4951 10.9813 11.796 11.1473 12.057 11.366C12.1359 11.4545 12.1873 11.564 12.2051 11.6811C12.2229 11.7983 12.2061 11.9181 12.157 12.026C12.1252 12.0833 12.0854 12.1358 12.039 12.182C11.9429 12.2665 11.8311 12.3312 11.7099 12.3724C11.5888 12.4136 11.4607 12.4304 11.333 12.422C11.0904 12.4281 10.8507 12.3694 10.6383 12.252C10.426 12.1345 10.2488 11.9627 10.125 11.754C10.1 11.7143 10.0712 11.6771 10.039 11.643C10.027 11.643 9.022 12.223 9.001 12.243C8.98 12.263 9.001 12.283 9.05 12.367C9.24629 12.6992 9.51877 12.9801 9.84495 13.1863C10.1711 13.3925 10.5417 13.5182 10.926 13.553C11.2086 13.5827 11.4934 13.5827 11.776 13.553C12.2414 13.5106 12.68 13.3163 13.024 13C13.1891 12.8384 13.3183 12.6438 13.4032 12.429C13.4882 12.2141 13.5269 11.9838 13.517 11.753C13.5251 11.4623 13.4645 11.1738 13.34 10.911C13.2626 10.7467 13.1562 10.5977 13.026 10.471C12.6308 10.1152 12.1689 9.8416 11.667 9.666C11.3577 9.56644 11.0705 9.40822 10.821 9.2C10.7649 9.14103 10.7222 9.07066 10.6958 8.99369C10.6694 8.91672 10.6599 8.83497 10.668 8.754C10.6688 8.6307 10.716 8.51222 10.8 8.422C10.8628 8.35346 10.9406 8.30043 11.0274 8.26711C11.1142 8.23379 11.2075 8.22109 11.3 8.23C11.4093 8.22323 11.5187 8.24079 11.6204 8.28143C11.7221 8.32207 11.8135 8.38477 11.888 8.465C11.952 8.52888 12.0096 8.59888 12.06 8.674C12.0763 8.71506 12.1049 8.75002 12.142 8.774C12.176 8.759 13.136 8.139 13.136 8.13C13.136 8.121 13.087 8.048 13.028 7.958C12.8879 7.75359 12.7149 7.57382 12.516 7.426C12.2132 7.22706 11.862 7.11435 11.5 7.1C11.3627 7.08499 11.2243 7.08499 11.087 7.1ZM6.976 9.5V11.835L6.947 11.945C6.92358 12.0613 6.86737 12.1686 6.785 12.254C6.71866 12.3131 6.64073 12.3576 6.55618 12.3848C6.47163 12.412 6.38233 12.4213 6.294 12.412C6.12396 12.4107 5.95834 12.3577 5.81917 12.26C5.68001 12.1623 5.57391 12.0245 5.515 11.865C5.49317 11.8245 5.46738 11.7864 5.438 11.751L4.9 12.069L4.378 12.386L4.418 12.465C4.65082 12.9335 5.06016 13.2903 5.556 13.457C6.10444 13.6291 6.69439 13.615 7.234 13.417C7.52543 13.296 7.7764 13.0946 7.95756 12.8362C8.13871 12.5778 8.24258 12.2732 8.257 11.958C8.265 11.884 8.27 11.058 8.27 9.506V7.165H6.981L6.976 9.5ZM13.482 15H2.518C2.11548 14.9997 1.72953 14.8397 1.4449 14.5551C1.16028 14.2705 1.00026 13.8845 1 13.482V2.518C1.00026 2.11548 1.16028 1.72953 1.4449 1.4449C1.72953 1.16028 2.11548 1.00026 2.518 1H13.482C13.8845 1.00026 14.2705 1.16028 14.5551 1.4449C14.8397 1.72953 14.9997 2.11548 15 2.518V13.482C14.9997 13.8845 14.8397 14.2705 14.5551 14.5551C14.2705 14.8397 13.8845 14.9997 13.482 15ZM2.518 1.705C2.30246 1.70526 2.09582 1.791 1.94341 1.94341C1.791 2.09582 1.70526 2.30246 1.705 2.518V13.482C1.70526 13.6975 1.791 13.9042 1.94341 14.0566C2.09582 14.209 2.30246 14.2947 2.518 14.295H13.482C13.6975 14.2947 13.9042 14.209 14.0566 14.0566C14.209 13.9042 14.2947 13.6975 14.295 13.482V2.518C14.2947 2.30246 14.209 2.09582 14.0566 1.94341C13.9042 1.791 13.6975 1.70526 13.482 1.705H2.518Z" fill="#E79627"/>
</svg>
